<?xml version="1.0" encoding="UTF-8"?>
<svg version="1.1" xmlns="http://www.w3.org/2000/svg" width="64" height="64" viewBox="0 0 332 332">
<!-- The viewBox ensures the original 332x332 content scales down to 64x64 cleanly -->
<path d="M0 0 C8.83505068 7.48144043 12.50468315 15.80645036 13.5625 27.1875 C13.65072442 29.91313516 13.70323425 32.61160363 13.6953125 35.3359375 C13.69626923 36.0745401 13.69722595 36.8131427 13.69821167 37.5741272 C13.69888653 39.11859219 13.69708119 40.66306013 13.69287109 42.20751953 C13.68746645 44.5772121 13.69286308 46.94671912 13.69921875 49.31640625 C13.69855875 50.82291708 13.6972792 52.3294278 13.6953125 53.8359375 C13.69733673 54.54422699 13.69936096 55.25251648 13.70144653 55.98226929 C13.67749361 60.95751277 13.67749361 60.95751277 12.5625 63.1875 C32.3625 63.1875 52.1625 63.1875 72.5625 63.1875 C72.5625 80.30830615 72.46222607 89.55448625 61.8515625 101.93359375 C47.90575836 115.66521318 31.09175093 116.1875 12.5625 116.1875 C12.5625 145.8875 12.5625 175.5875 12.5625 206.1875 C32.3625 206.1875 52.1625 206.1875 72.5625 206.1875 C72.5625 224.54252119 66.33387008 238.94235328 53.5625 252.1875 C40.91251465 262.90816369 25.17184248 266.9704637 8.76953125 266.46484375 C-7.90599049 265.02274625 -22.1363568 258.70144882 -33.4375 246.1875 C-46.60008164 229.37835874 -47.74123406 210.83384774 -47.68041992 190.43359375 C-47.68149417 188.3383427 -47.68343496 186.24309194 -47.68617249 184.14784241 C-47.69099884 178.48522016 -47.68339451 172.82267734 -47.67321944 167.1600647 C-47.66441009 161.22910661 -47.6661969 155.2981508 -47.6665802 149.3671875 C-47.66564535 139.41779253 -47.65698245 129.46842816 -47.64331055 119.51904297 C-47.62755239 108.0087269 -47.62231373 96.49844425 -47.6230461 84.98811817 C-47.62365572 73.91159921 -47.61855857 62.83509113 -47.61025429 51.75857544 C-47.60671996 47.04411738 -47.60489084 42.32966318 -47.60436058 37.61520386 C-47.60335839 32.07315784 -47.59727197 26.53114003 -47.58719444 20.98910332 C-47.58426678 18.95208344 -47.58304461 16.91506031 -47.58362198 14.87803841 C-47.58411058 12.10551096 -47.57847775 9.33306324 -47.57121277 6.56054688 C-47.57276137 5.74801673 -47.57430997 4.93548658 -47.5759055 4.09833431 C-47.56184025 0.86537596 -47.46735502 -1.72293495 -46.4375 -4.8125 C-31.81558127 -6.94057268 -12.65423027 -8.87893505 0 0 Z " fill="#697AE5" transform="translate(189.4375,35.8125)"/>
<path d="M0 0 C0.86925078 0.00092179 1.73850157 0.00184359 2.63409328 0.00279331 C3.62833813 0.00141865 4.62258297 0.00004398 5.64695644 -0.00137234 C6.74674831 0.00222294 7.84654018 0.00581821 8.97965908 0.00952244 C10.70626011 0.0093034 10.70626011 0.0093034 12.46774197 0.00907993 C16.29326635 0.00977965 20.11874275 0.0175748 23.94425869 0.02539158 C26.58841837 0.02725555 29.2325784 0.02867955 31.87673855 0.0296793 C38.13825661 0.03279234 44.3997573 0.04100535 50.6612677 0.05102879 C57.78811781 0.06219078 64.91496874 0.06770059 72.04182541 0.07272422 C86.70592674 0.08318799 101.37001435 0.10078689 116.03410244 0.12304783 C116.08837791 3.1532398 116.12790811 6.18244582 116.15910244 9.21289158 C116.17586025 10.06411594 116.19261806 10.91534031 116.20988369 11.79235935 C116.29307062 22.58326427 112.30445526 30.72430288 105.32316494 38.86914158 C94.43730557 49.58781198 80.2389387 53.2102816 65.34573746 53.16456604 C61.55269203 53.12926431 57.76032203 53.06745486 53.96769619 53.00195408 C52.32146824 52.97761246 50.67523284 52.95377103 49.02899075 52.93040562 C44.72341733 52.86796633 40.41797828 52.79878885 36.11253262 52.72815037 C31.70819557 52.65710118 27.30376424 52.59250416 22.89933681 52.5273447 C14.27748753 52.39885101 5.65576957 52.26323015 -2.96589756 52.12304783 C-2.99116495 44.87818232 -3.00872936 37.63332809 -3.0208292 30.38842869 C-3.02587112 27.92162749 -3.03270447 25.45482931 -3.04133701 22.98803806 C-3.05340881 19.45100254 -3.05912712 15.91400637 -3.06355381 12.37695408 C-3.0687151 11.26655262 -3.07387638 10.15615116 -3.07919407 9.01210117 C-3.0792696 7.99111835 -3.07934513 6.97013554 -3.07942295 5.91821384 C-3.08164356 5.01442493 -3.08386417 4.11063602 -3.08615208 3.17945957 C-2.92669674 0.45269438 -2.7268654 0.1706777 0 0 Z " fill="#7373E6" transform="translate(145.96589756011963,98.87695217132568)"/>
<path d="M 99.4 64.15 L 125.652 123.656 L 73.148 123.656 L 99.4 64.15 Z" fill="#7373E6" transform="translate(10,31) rotate(-90 99.4 93.903)"/>
</svg>
